<svg xmlns="http://www.w3.org/2000/svg" height="4200px" width="4200px" viewBox="0 0 450 450">
    <style>.bg{fill:#000;z-index:1;}.fg{fill:#fff;z-index:
        2;}@media(prefers-color-scheme:dark){.bg{fill:#000;}.fg{fill:#cf0;}}
    </style>
    <path class="bg" d="M0 0h450v450H0V0Z"/>
    <path class="fg"
          d="M294 321c16 12 35 0 55 0l36 2c6-1 16-4 24-2 14 3 24 6 41 6v123H350c-13 0-34 3-43-2l-13-11c-6-5-16-8-21-15l-4-9-12-9c-5-7-1-20-6-27l-23-20c-4-2-8 1-11-2-10-8-19-35-23-49-14-49 29-70 63-81l18-1c10-2 43 0 48 2 2 3 2 5 2 10-3 4 0 12 1 16l6 5c6 3 11 2 16 4 8 3 20 15 34 11 10-3 13-14 22-17 4-1 11 1 13 1l10-2c4-7 7-16 5-25l-22-11c-6-1-14 6-22 4-11-3-18-11-31-11-2 5-3 9-10 9-4 3-12 2-17 4v-8c-4-6 4-17 7-22l24-42c4-7 4-16 11-20 3-3 15-6 21-3 10 3 9 10 14 18 5 9 11 17 15 26 3 6 1 11 3 19 1 4 5 7 7 11 2 5 2 21 7 23 3 2 7 0 11 0v87c-15 2-28-9-43-12h-17c-3 2-3 5-8 4l-9-2-3-3a16841 16841 0 0 1-46 7l-11 5c-6 2-11-3-17-2l-6 6v2l4 3Zm68 45c16 4 51 0 52-13h-2c-6-4-21 2-29 2l-42-6-1 7c7 3 15 8 22 10Z"/>
</svg>